<svg version="1.1" id="Layer_1" xmlns="http://www.w3.org/2000/svg" xmlns:xlink="http://www.w3.org/1999/xlink" x="0px" y="0px"
	 width="100%" viewBox="0 0 512 512" enable-background="new 0 0 512 512" xml:space="preserve">
<path fill="#FCFCFC" opacity="1.000000" stroke="none" 
	d="
M496.126465,277.368347 
	C495.655640,283.154572 495.184814,288.940765 494.722931,294.617188 
	C493.303101,294.465973 491.127686,294.060944 488.948395,294.038971 
	C484.661377,293.995667 479.758636,301.688049 480.191589,305.870422 
	C480.630310,310.108521 479.730560,314.514923 479.165466,318.814514 
	C478.887512,320.929352 476.884583,322.710541 479.469055,325.023163 
	C482.078766,327.358337 482.839539,324.152649 484.524536,324.026123 
	C484.990723,323.991150 485.472137,324.159149 485.957550,324.235779 
	C485.628113,325.821808 484.855072,327.384583 485.094757,328.772461 
	C486.010742,334.075714 482.739075,337.861938 480.560181,342.009247 
	C480.210785,342.674286 478.551971,342.675262 477.486664,342.934570 
	C476.003906,343.295593 474.509949,343.610748 473.020782,343.945526 
	C473.789398,345.424408 474.549469,346.907776 475.330719,348.379944 
	C475.637909,348.958710 475.992371,349.512390 477.254333,351.654663 
	C474.285767,351.015900 472.023865,351.187103 470.832306,350.140137 
	C468.084137,347.725403 465.571320,346.856293 462.243164,349.130249 
	C465.321136,351.212677 466.656464,353.364471 463.100037,356.078247 
	C461.437744,357.346680 459.783539,358.693665 458.416107,360.258789 
	C457.337524,361.493347 456.703278,363.116089 455.871704,364.566376 
	C457.671295,364.475586 459.545807,364.666840 461.249329,364.214294 
	C462.937836,363.765747 464.453918,362.668396 466.675507,361.533966 
	C467.515930,363.216492 468.408966,364.661560 468.981659,366.223999 
	C470.091675,369.252472 471.077606,372.330414 471.989929,375.424744 
	C472.247345,376.297729 472.070618,377.298737 472.092987,378.241028 
	C471.069977,377.834808 469.160553,377.435974 469.157074,377.021271 
	C469.106110,370.912842 463.171112,370.551727 460.050110,366.960571 
	C456.837646,372.400330 461.213043,374.645264 463.286896,377.059143 
	C461.685028,380.905243 460.790039,384.877289 458.502686,387.734680 
	C457.446167,389.054504 452.900177,389.283691 451.269531,388.127380 
	C446.015411,384.401489 442.323730,387.537842 436.642365,390.289337 
	C439.738922,391.847076 441.709351,392.838348 445.012207,394.499847 
	C442.653961,395.225006 441.051636,395.664673 439.487885,396.214050 
	C438.032990,396.725250 436.475098,397.139679 435.223358,397.983582 
	C433.619873,399.064545 432.285980,400.542450 430.817657,401.828430 
	C430.321686,402.262817 429.621002,402.533722 429.272949,403.052979 
	C428.393005,404.365601 430.400085,414.709412 431.889587,415.666626 
	C434.982239,417.654144 434.706055,419.123047 431.679352,420.884491 
	C429.495575,422.155426 426.967468,423.437500 425.618988,425.414459 
	C422.873505,429.439545 419.579712,427.947937 415.208496,426.912109 
	C416.091003,429.472290 416.766296,431.431305 417.257904,432.857513 
	C416.760895,434.402130 416.466248,435.713287 415.916901,436.907227 
	C415.425415,437.975433 414.650696,439.766968 414.005035,439.765167 
	C410.950531,439.756683 406.470459,440.381836 405.118988,438.689026 
	C401.476685,434.126923 397.876984,436.196625 394.014954,437.065369 
	C394.199249,442.850555 396.418304,444.616211 401.096222,443.565155 
	C402.734161,445.270477 404.060516,446.651428 405.386871,448.032349 
	C405.914185,448.086090 406.441498,448.139801 406.968811,448.193542 
	C405.055695,451.883850 403.335114,455.701141 401.059357,459.152344 
	C400.628418,459.805817 397.673187,459.522827 396.446075,458.762604 
	C394.281036,457.421295 392.961090,454.750641 389.596863,456.487122 
	C386.370300,458.152496 385.591217,460.617950 385.989136,463.876648 
	C386.088165,464.687805 386.003937,465.521362 386.003937,466.587677 
	C383.398346,465.730927 381.113068,464.677277 378.726288,464.338470 
	C377.724884,464.196320 376.566559,465.704926 375.372528,466.209961 
	C374.326080,466.652557 372.551086,467.308411 372.119904,466.868408 
	C371.212708,465.942780 370.147919,463.773804 370.596161,463.140930 
	C373.865601,458.525055 371.121155,456.325287 367.543610,454.164307 
	C365.627686,453.007019 363.866791,451.593048 361.735321,450.081757 
	C360.254608,452.422485 358.352722,454.487305 362.657074,456.073029 
	C363.485931,456.378357 363.978180,457.597473 364.625732,458.395020 
	C363.707092,458.930725 362.831024,459.573608 361.853790,459.961639 
	C361.275299,460.191284 360.523834,459.935486 359.872498,460.038818 
	C352.078522,461.275299 352.139954,461.285187 351.748810,469.245483 
	C351.555756,473.174347 351.092468,477.089905 350.849762,479.881409 
	C348.164337,480.672455 346.195801,481.427094 344.157471,481.816437 
	C339.864868,482.636414 336.201019,481.024750 332.617859,478.772888 
	C330.643127,477.531921 328.274933,476.922150 326.098511,475.994141 
	C325.325806,475.664673 324.411774,475.404205 323.878510,474.822388 
	C321.845184,472.603851 321.044922,472.633636 318.770264,475.308655 
	C316.027710,478.533875 311.584045,480.312561 307.227448,483.138611 
	C308.154938,484.631256 309.208740,486.327209 310.585602,488.543121 
	C314.826233,481.890839 317.826111,488.558624 321.805115,488.547394 
	C319.231323,490.212463 317.046173,491.626129 314.117004,493.521118 
	C312.279358,492.148651 310.794922,485.452911 306.132935,490.245911 
	C304.642944,488.537811 303.219971,486.906525 301.796997,485.275269 
	C301.004456,487.751587 300.211914,490.227875 299.256500,493.213074 
	C295.964386,493.680511 291.247101,494.350342 286.529785,495.020142 
	C286.420746,495.595581 286.311737,496.171021 286.202698,496.746460 
	C284.585327,494.130585 282.967926,491.514740 281.350555,488.898865 
	C280.920197,489.017151 280.489868,489.135437 280.059509,489.253723 
	C279.950439,491.686859 279.841370,494.120026 279.696686,497.348022 
	C273.365479,493.804565 276.961334,486.551849 272.837677,482.262848 
	C271.836670,483.564423 271.015991,484.631470 270.511383,485.287598 
	C266.860901,485.037781 263.336456,485.252441 260.055389,484.459839 
	C255.684723,483.403992 248.547913,487.334442 248.125626,492.055267 
	C247.820450,495.467255 247.086349,495.996033 243.634811,495.173645 
	C237.923904,493.812927 233.137070,496.102173 230.290512,501.202545 
	C228.685837,498.796234 227.103333,496.916687 226.108368,494.765381 
	C225.392181,493.216797 225.459351,491.305878 225.177078,489.556610 
	C226.535568,490.210785 227.904480,490.844360 229.248703,491.526642 
	C230.084488,491.950867 230.882889,492.448700 231.698090,492.913483 
	C232.132339,492.622833 232.566605,492.332184 233.000870,492.041534 
	C231.915756,490.223877 231.261673,487.513245 229.670029,486.744995 
	C223.189667,483.616943 216.427429,481.070770 209.750671,478.355408 
	C209.184418,478.125061 208.481995,478.229553 207.681137,478.165588 
	C205.588684,483.848846 211.573853,484.010223 213.363663,486.893005 
	C214.153259,488.164856 214.917587,489.452332 215.693375,490.732727 
	C214.254761,490.660553 212.813843,490.500610 211.378128,490.538483 
	C209.593613,490.585510 207.334274,490.161133 206.131592,491.068756 
	C203.668060,492.927917 201.886520,495.662720 199.593414,497.787994 
	C198.506088,498.795776 196.888519,499.231506 195.511169,499.926392 
	C195.006042,498.631165 194.329941,497.371704 194.048874,496.029572 
	C193.816177,494.918396 193.926025,493.690918 194.098862,492.547424 
	C194.708359,488.515747 192.394989,486.484894 188.982391,485.926239 
	C185.235626,485.312897 183.077301,487.933990 182.114807,491.126312 
	C180.346329,496.991882 179.525894,497.413788 174.090714,494.186890 
	C175.358765,490.254181 176.287247,486.398010 181.204147,484.796600 
	C182.673904,484.317871 183.422363,480.505920 183.813980,478.108856 
	C184.345322,474.856567 177.143021,469.455963 173.971924,469.230713 
	C171.487762,469.054291 169.025894,467.196289 166.757324,465.763641 
	C164.762985,464.504089 163.050583,462.798157 160.002823,460.294769 
	C160.002823,463.440308 159.863464,465.108734 160.040985,466.742706 
	C160.228333,468.467102 160.717926,470.158630 161.191513,472.418182 
	C158.052628,472.174042 154.364471,473.850037 155.779694,468.261261 
	C156.003220,467.378632 155.379181,465.759399 154.640472,465.305878 
	C153.940826,464.876373 152.205292,465.150574 151.564911,465.773102 
	C148.240402,469.005188 144.694138,467.790436 140.903442,467.010132 
	C138.503265,466.516052 135.881332,467.171661 133.358673,467.174957 
	C131.652481,467.177216 129.945969,466.941681 128.065903,465.648651 
	C129.240433,464.746948 130.414963,463.845276 131.835251,462.754913 
	C130.803131,460.666229 129.741425,458.517670 128.532776,456.071747 
	C130.343307,454.963470 132.299683,454.197571 133.612213,452.818787 
	C134.571533,451.811035 135.071289,450.001617 135.089157,448.541168 
	C135.121597,445.888519 134.642883,443.229553 134.357025,440.368073 
	C134.312164,440.385132 133.329803,440.513306 132.678452,441.046112 
	C127.643074,445.164856 126.649635,445.326813 122.979065,440.400940 
	C120.730545,437.383453 119.600632,435.148956 114.975914,437.666931 
	C111.609505,439.499786 106.883469,438.835480 101.954315,439.372711 
	C98.640457,436.511261 94.613159,433.062103 96.679680,426.463776 
	C96.962364,425.561157 94.145966,423.687988 92.382759,421.870819 
	C92.617996,421.646576 94.009705,420.899414 94.398026,419.798340 
	C94.851654,418.512085 95.002594,416.477997 94.281631,415.537140 
	C92.002586,412.563049 89.354652,409.843781 86.638466,407.246582 
	C85.589577,406.243652 83.984894,405.386658 82.612633,405.354675 
	C81.995552,405.340271 80.653412,407.609253 80.805916,408.675507 
	C81.312057,412.214050 79.453049,412.267548 76.986618,411.793243 
	C75.870926,411.578644 74.652351,411.457886 73.706612,410.906586 
	C72.371910,410.128540 71.247063,408.990479 70.032486,408.006378 
	C71.141106,407.283142 72.276276,406.596252 73.343666,405.816559 
	C73.707230,405.551056 73.900208,405.052002 74.236328,404.565216 
	C73.906563,404.159546 73.557472,403.457458 73.333458,403.495331 
	C69.913345,404.073395 66.768135,403.859467 65.526054,399.980347 
	C64.628052,397.175842 64.186790,394.222992 63.589020,391.326569 
	C63.491791,390.855469 63.851295,390.201080 63.636753,389.859100 
	C62.835075,388.581299 61.882496,387.398163 60.986538,386.179535 
	C60.376694,387.339325 59.882957,388.581696 59.130169,389.639801 
	C57.960098,391.284424 56.613800,392.803680 55.342213,394.376068 
	C54.441818,393.616272 53.541424,392.856476 52.650982,391.679871 
	C52.799965,391.145813 52.938995,391.028625 53.078026,390.911407 
	C56.697651,391.287292 57.058609,389.315155 56.953564,386.283783 
	C56.905521,384.897369 58.128288,382.726471 59.346756,382.174774 
	C63.083202,380.483032 64.071510,377.925568 61.976810,374.446503 
	C60.403164,371.832855 59.294418,368.943420 57.805862,366.273102 
	C56.666454,364.229095 54.678875,361.354797 52.672272,364.350037 
	C49.166882,369.582489 44.560287,369.345490 39.404903,368.735687 
	C42.971615,360.794098 38.847496,354.773315 34.851952,349.390991 
	C37.128185,346.847321 39.319550,344.398468 41.931107,341.480072 
	C39.471413,340.382385 38.057346,339.751343 35.929729,338.801849 
	C39.241051,335.489288 45.603966,335.420197 44.714470,328.860382 
	C37.138023,327.712219 40.223312,321.177948 39.673763,316.458649 
	C33.830971,317.082825 32.802608,318.375549 33.753681,323.182434 
	C33.944355,324.146118 34.260246,325.321991 33.893196,326.108093 
	C33.199978,327.592773 32.052616,328.865387 31.093990,330.226135 
	C30.063145,328.571289 27.989153,326.765594 28.202419,325.290619 
	C28.778959,321.303223 26.777607,320.163116 23.689714,318.928864 
	C21.205244,317.935822 19.074638,316.057495 16.320150,314.268768 
	C23.815496,311.302460 24.178972,304.151672 17.061905,298.372375 
	C18.898886,297.731659 20.163969,297.042267 21.494692,296.875000 
	C24.866205,296.451080 27.622534,295.568817 27.861357,291.456360 
	C27.903229,290.735321 28.536676,289.919678 29.114693,289.381744 
	C31.224644,287.418060 31.817961,285.867126 30.591427,282.587128 
	C29.442345,279.514282 30.318686,275.254730 31.425323,271.885864 
	C32.581276,268.366852 32.769024,266.172089 28.755840,265.047180 
	C28.070471,264.855103 27.543335,264.120209 26.858330,263.901093 
	C24.532047,263.156982 22.184835,262.268616 19.801592,262.114044 
	C19.393711,262.087585 18.770029,265.387817 18.236416,267.183655 
	C16.267223,266.843811 14.047754,266.460754 11.426470,266.008392 
	C13.006551,264.136169 15.556628,262.496216 15.717341,260.648438 
	C16.100403,256.244293 15.509768,251.723846 14.989662,247.288223 
	C14.780974,245.508469 13.725542,243.828033 13.055504,242.102386 
	C15.469689,242.022476 17.885052,241.856552 20.297701,241.889450 
	C22.282890,241.916519 24.470150,242.779892 26.197504,242.189362 
	C28.475046,241.410706 30.390434,239.572754 33.538967,237.470978 
	C28.398123,235.795685 28.038727,234.007751 30.280148,231.084259 
	C36.284058,223.253433 35.485756,217.369965 27.927567,211.406433 
	C23.675295,208.051300 22.315290,202.965607 24.981316,198.704071 
	C25.625103,197.674988 27.794655,197.667053 29.185047,197.022339 
	C31.137604,196.116974 33.042168,195.098083 34.910557,194.028687 
	C35.346741,193.779022 35.598312,192.702499 35.861698,192.729141 
	C42.120831,193.362457 42.660625,190.233780 41.297180,185.193436 
	C40.948368,183.903961 42.204536,182.077423 42.964287,180.623566 
	C43.570335,179.463821 44.917984,178.605438 45.266167,177.416931 
	C45.812817,175.550964 45.795074,173.519669 46.016346,171.558380 
	C44.061844,171.732346 42.070839,171.737030 40.167343,172.147522 
	C39.125114,172.372269 38.230717,173.282547 36.922920,174.100586 
	C35.077312,171.036118 33.052986,168.074493 31.527601,164.875015 
	C31.121231,164.022659 32.081013,161.445923 32.688793,161.346680 
	C39.935413,160.163620 40.703838,153.866409 42.983585,148.764465 
	C43.231274,148.210159 43.316437,147.583221 43.573540,146.633209 
	C46.190800,147.076065 49.729008,148.683151 50.774429,147.683441 
	C56.393360,142.310226 60.614208,146.720703 65.248421,148.919983 
	C65.668816,149.119507 66.238220,149.076965 66.729073,149.035629 
	C67.207924,148.995300 67.674759,148.812347 68.408470,148.625320 
	C68.500130,145.781906 70.776978,142.339432 65.112885,141.857391 
	C62.645096,141.647385 63.232643,135.399124 65.918503,132.552582 
	C67.010666,131.395096 67.918533,130.063705 68.910263,128.811447 
	C66.684135,127.611252 64.469551,126.388878 62.226498,125.221191 
	C61.257576,124.716789 59.474049,124.439552 59.386360,123.858902 
	C59.204639,122.655609 59.597630,121.104622 60.303932,120.072845 
	C63.529831,115.360435 67.026543,110.832832 70.228767,106.105270 
	C70.904243,105.108032 70.752274,103.549683 70.979309,102.249489 
	C71.253685,100.678223 71.003448,98.258629 71.903076,97.704567 
	C74.035439,96.391296 79.616280,98.869049 80.897873,101.335609 
	C79.621124,101.738304 78.390091,102.126572 77.333466,102.459839 
	C77.224236,103.012939 77.105568,103.256271 77.172195,103.328354 
	C79.289932,105.619682 89.540154,104.293571 91.308083,101.909904 
	C93.218536,99.334076 95.387642,96.634720 98.065506,95.020241 
	C101.719666,92.817192 103.357208,90.675255 100.632027,86.594528 
	C107.444580,84.350006 100.322113,80.718399 101.570564,77.149033 
	C101.309494,75.957573 101.116333,75.464111 100.923164,74.970650 
	C106.593658,73.234077 108.972672,69.644104 108.037178,64.551605 
	C107.783096,63.168484 107.983177,61.671886 108.220657,60.268986 
	C108.248322,60.105560 110.405090,59.875462 110.628601,60.246399 
	C111.583031,61.830395 112.278801,63.595455 112.880775,65.358704 
	C113.369408,66.790009 113.178406,68.678963 114.064476,69.674789 
	C114.727264,70.419662 117.206871,70.663139 117.832100,70.055038 
	C118.689240,69.221359 118.556732,67.370171 119.089714,64.783669 
	C121.900139,67.887375 124.630615,70.902802 127.361099,73.918228 
	C127.802940,73.911514 128.244766,73.904808 128.686615,73.898102 
	C128.658798,63.820686 137.932770,66.352448 144.425568,62.026646 
	C139.004486,59.978603 134.892899,58.425282 130.305023,56.692024 
	C132.846619,53.467232 134.517075,50.687401 137.594299,55.517540 
	C138.162048,56.408722 140.991364,55.859100 142.867310,55.980339 
	C142.794983,50.269886 145.258591,46.799923 148.873520,43.741783 
	C150.040726,42.754360 150.168900,40.626579 151.050751,39.191517 
	C152.121567,37.448910 153.189331,35.181309 154.827484,34.490746 
	C155.956573,34.014778 158.051834,35.830780 159.255569,36.403660 
	C157.633682,38.703728 155.236328,40.638599 155.465408,42.184223 
	C155.701889,43.779861 158.339127,45.314873 160.237579,46.230640 
	C161.051178,46.623100 162.652344,45.382908 163.785049,44.928864 
	C166.588318,47.328388 169.725204,50.013489 173.885239,53.574379 
	C174.949280,51.328743 176.120132,48.857685 177.291000,46.386627 
	C176.897018,46.161304 176.503036,45.935982 176.109055,45.710655 
	C179.012497,44.383240 181.915939,43.055828 185.160004,41.572678 
	C181.918213,36.768650 177.715622,36.582523 173.088150,37.324364 
	C172.145370,37.475506 171.079437,36.858353 170.070267,36.595375 
	C170.763916,35.731327 171.579254,34.045792 172.132767,34.127789 
	C179.207397,35.175800 180.630386,29.918804 182.610687,24.546877 
	C185.790802,25.036585 189.032028,25.334705 192.170792,26.070122 
	C196.059128,26.981163 200.208344,25.164654 201.805054,21.607340 
	C202.539963,19.970049 203.509735,18.438183 204.876953,15.936381 
	C206.188858,18.600500 206.922699,20.090727 207.085205,20.420729 
	C205.611511,22.334946 204.019760,23.538725 203.676208,25.030041 
	C202.978638,28.058189 204.425476,30.223154 207.776474,30.172365 
	C212.018158,30.108074 214.141098,32.264126 215.212845,36.124542 
	C215.538071,37.295971 216.423660,38.895397 217.380585,39.174553 
	C218.912323,39.621410 220.717819,39.129787 222.407608,39.034863 
	C222.087616,37.726528 221.895325,36.367500 221.403030,35.127579 
	C221.071609,34.292789 220.316254,33.626316 219.552094,32.624321 
	C223.033188,30.327406 225.856949,27.926575 222.697052,23.604235 
	C222.544754,23.395901 224.171555,21.124847 224.950027,21.136538 
	C227.621002,21.176655 230.200043,20.702600 232.672058,23.453918 
	C234.295135,25.260361 238.325653,24.903757 241.425049,25.546333 
	C241.505066,17.995432 241.603073,18.351639 248.552292,17.802038 
	C251.532593,17.566334 254.343582,15.189735 257.740936,13.538211 
	C261.971710,14.620979 265.026184,22.281391 272.334167,18.200506 
	C271.774200,16.507971 271.296204,15.063248 270.672791,13.178881 
	C274.487305,13.450268 278.315125,11.421582 280.721375,14.307191 
	C279.236511,16.443789 278.371460,18.405420 276.891632,19.614799 
	C275.432281,20.807468 273.338470,21.211538 271.544983,22.010847 
	C269.349060,22.989511 266.874329,23.665401 265.112030,25.166906 
	C264.137146,25.997545 264.371765,28.247770 264.061157,29.858089 
	C265.428162,29.784718 266.822083,29.504951 268.156921,29.678812 
	C271.435150,30.105804 274.866638,30.265537 277.901642,31.416128 
	C281.557312,32.802029 283.591919,31.875637 284.945923,28.508471 
	C285.066101,28.209656 285.013550,27.568939 285.085968,27.562120 
	C291.293060,26.977530 290.859802,22.541563 290.172699,17.707642 
	C294.796814,22.278395 299.703613,22.898874 305.714142,21.133421 
	C306.474884,21.385733 306.620514,21.495382 306.766144,21.605030 
	C306.484283,23.155836 306.202423,24.706644 305.782990,27.014378 
	C308.027557,26.070364 309.531433,25.437876 312.670471,24.117664 
	C312.340363,30.047285 312.065643,34.982548 311.737244,40.881672 
	C313.858459,39.125160 315.075958,38.116997 316.637421,36.823990 
	C315.850037,36.410866 315.201630,36.070663 314.632019,35.771816 
	C316.083832,34.481323 317.537750,33.188923 319.683044,31.281992 
	C319.056519,38.760136 324.640167,39.403915 329.305237,41.895031 
	C330.092346,40.246796 330.758881,38.851006 331.587250,37.116405 
	C332.367249,37.116405 333.819763,36.662964 334.526123,37.196789 
	C337.239166,39.247192 338.594452,37.344936 339.634857,35.499908 
	C341.138702,32.833031 342.349823,32.666245 345.073547,34.314495 
	C347.154144,35.573547 350.178070,35.411922 352.802460,35.595127 
	C355.421234,35.777943 358.123566,35.298454 360.659119,35.786133 
	C361.348846,35.918800 361.918671,38.494144 361.919464,39.948753 
	C361.920563,41.961315 361.331055,43.974194 360.157135,45.993011 
	C359.344910,43.708572 358.532684,41.424133 357.720459,39.139694 
	C357.091400,39.143482 356.462311,39.147274 355.833252,39.151062 
	C355.621643,41.670670 355.108673,44.223892 355.383606,46.689240 
	C355.465240,47.421143 357.762512,47.905941 358.931335,48.451160 
	C358.931335,51.716442 358.931335,55.462784 358.931335,60.726131 
	C362.867157,56.663601 365.676331,53.254055 369.052185,50.552746 
	C370.253296,49.591656 373.794739,49.533943 374.595123,50.479626 
	C376.830627,53.120857 383.906067,50.676540 382.027740,57.444489 
	C381.746307,58.458538 381.652802,59.524754 381.254150,61.827007 
	C383.286652,60.544472 384.768890,60.147156 385.196350,59.248241 
	C387.278778,54.869144 389.265991,55.968849 392.260803,58.531597 
	C394.310425,60.285500 397.464203,60.680561 399.882294,62.096527 
	C401.478210,63.031067 403.605133,64.563675 403.817261,66.065376 
	C404.382507,70.066948 406.566345,74.690712 401.429321,77.780640 
	C400.799011,78.159767 400.585907,80.664215 401.167480,81.372978 
	C403.414429,84.111214 405.961975,86.630150 408.584534,89.026146 
	C412.173676,92.305298 415.630280,91.432480 419.350403,88.718933 
	C420.953705,89.817947 422.039307,90.466118 423.906769,91.581070 
	C423.758484,89.130203 423.678986,87.816109 423.573608,86.073997 
	C422.065521,86.853554 421.097412,87.353996 420.129272,87.854431 
	C418.557770,84.201485 420.911163,81.927879 423.150757,79.741737 
	C423.652283,79.252205 425.149841,79.046257 425.650665,79.423759 
	C427.554535,80.858864 429.965302,82.267937 430.844269,84.274696 
	C432.418060,87.867630 432.775513,91.977058 434.151093,95.681290 
	C434.684357,97.117249 436.601929,98.039116 438.254181,99.523300 
	C436.029968,102.931053 429.997101,106.337456 436.788788,111.022552 
	C435.119263,114.669304 433.739960,117.584755 438.907532,119.885735 
	C440.919159,120.781441 441.388092,125.031036 442.685760,127.691467 
	C443.265961,128.881042 444.156708,129.919174 444.906555,131.026031 
	C445.920258,129.987549 447.664032,129.030334 447.790619,127.893112 
	C448.029846,125.744064 447.163483,123.495895 447.108368,121.280174 
	C447.080200,120.147011 447.813049,118.994942 448.201965,117.851418 
	C449.119110,118.327126 450.078308,118.737404 450.943787,119.293503 
	C452.327728,120.182709 453.649445,121.168709 454.128174,121.504318 
	C456.183441,119.569923 457.498657,118.332062 458.813873,117.094193 
	C459.543976,119.021889 460.298248,120.940842 460.999146,122.879105 
	C462.517609,127.078217 460.318359,128.039124 456.636292,128.356354 
	C454.965271,128.500320 453.400696,129.879974 451.787811,130.699066 
	C453.554932,131.564987 455.252960,132.667740 457.114288,133.210663 
	C458.287262,133.552795 459.704590,133.057129 459.987640,133.031189 
	C463.122772,136.275330 465.711029,138.953568 468.369537,141.704514 
	C464.231720,142.886780 462.483826,145.870392 463.005615,150.622238 
	C464.976898,150.857376 466.747894,151.068619 469.930695,151.448257 
	C465.401428,154.396835 458.326172,153.542892 459.225189,161.388397 
	C463.241302,157.924133 469.592163,168.320129 472.428802,158.309525 
	C472.726013,158.213196 473.142548,157.932144 473.324280,158.041443 
	C475.737885,159.493073 479.253265,154.582474 480.766083,158.945267 
	C481.635773,161.453339 480.923767,164.509872 480.923767,167.029388 
	C478.780487,169.926758 476.588654,172.889786 473.711853,176.778778 
	C477.645416,177.411194 480.329865,177.842789 483.796356,178.400116 
	C484.896637,184.804001 486.075867,191.667297 487.269196,198.612564 
	C485.209595,198.612564 482.268066,197.738235 481.135345,198.797714 
	C478.895538,200.892685 474.747864,202.770248 478.504974,207.647690 
	C480.322144,210.006699 479.648499,214.284698 480.101379,217.694000 
	C480.209564,218.508438 480.034302,219.538132 480.467438,220.100815 
	C482.274261,222.448135 487.378052,219.352966 487.665222,224.394958 
	C490.475708,223.938416 493.284943,223.473892 496.098389,223.036331 
	C496.415283,222.987061 496.755859,223.090012 497.089783,223.119904 
	C497.331512,223.325104 497.795471,223.562027 497.772980,223.736069 
	C497.255676,227.737411 496.685883,231.731964 496.124481,235.727585 
	C496.055664,236.217255 495.742706,236.852539 495.941498,237.173126 
	C499.419006,242.780548 495.885223,243.061707 491.582001,243.365479 
	C490.038361,243.474442 487.098328,243.966461 489.070679,247.221939 
	C489.311310,247.619125 488.019501,249.325211 487.112823,249.961411 
	C484.925232,251.496429 482.545135,252.757034 479.658142,254.476395 
	C488.870483,258.652130 483.726166,264.843262 482.009827,270.705322 
	C488.432739,272.109924 491.031006,267.559357 494.640900,264.262848 
	C496.301788,266.496216 497.941040,268.700470 500.420746,272.034912 
	C499.680939,273.200653 498.286804,275.397400 496.167847,277.325958 
	C495.416626,276.463898 495.342651,275.867554 495.373779,275.276733 
	C495.435211,274.113525 495.554993,272.953400 495.650604,271.791992 
	C494.256256,271.759064 492.729187,271.360748 491.507843,271.804199 
	C490.453339,272.187073 489.746521,273.527435 488.911194,274.417633 
	C490.317291,278.350433 492.975342,278.490997 496.126465,277.368347 
M81.835884,346.014099 
	C83.288116,345.906799 84.740341,345.799500 86.470421,345.671692 
	C89.057243,351.790649 90.751175,357.763733 85.227440,363.462311 
	C84.600632,364.108978 84.876793,365.630890 84.687943,367.109467 
	C87.755432,364.652679 90.139099,362.743561 93.702019,359.889984 
	C93.322144,362.943726 93.110374,364.646088 92.799187,367.147736 
	C94.697670,367.419128 97.128563,367.173889 98.870369,368.153656 
	C101.531631,369.650604 103.717072,371.993439 106.104523,373.977173 
	C104.557404,375.724854 103.207542,378.711639 101.427315,378.995026 
	C95.333717,379.965057 97.903152,385.522308 93.985153,388.552643 
	C99.941673,389.994568 104.419113,390.760803 108.648460,392.237518 
	C110.734993,392.966064 112.099091,394.803680 109.381851,397.155243 
	C108.345924,398.051788 108.067108,400.178436 108.099136,401.730957 
	C108.108391,402.179871 110.373291,402.676941 111.644287,402.987488 
	C115.527283,403.936249 118.647789,403.137939 121.204254,399.648529 
	C121.907059,398.689209 124.577690,398.550781 126.089272,398.966583 
	C127.862602,399.454376 129.336929,400.989258 130.977875,402.010620 
	C132.319748,402.845886 134.242310,403.262939 134.985641,404.445038 
	C136.931503,407.539459 138.372833,410.951141 140.033554,414.272919 
	C138.184372,414.431488 135.617020,414.651642 133.049667,414.871796 
	C132.846024,415.353790 132.642380,415.835754 132.438721,416.317719 
	C134.310654,417.838379 135.986816,420.217438 138.095840,420.698395 
	C142.293610,421.655701 146.732254,421.539307 151.063431,421.950134 
	C151.631134,422.004028 152.309036,422.426208 152.671143,422.886200 
	C157.457092,428.965851 157.445221,428.975189 164.144821,426.004944 
	C166.291489,428.305420 168.516022,430.689331 170.954330,433.302307 
	C172.386383,431.981018 174.252838,430.258972 176.187988,428.473541 
	C178.778259,431.857422 181.172653,434.985352 184.382050,439.178040 
	C180.976929,439.178040 178.754883,439.862885 177.831299,439.057922 
	C174.095551,435.801971 170.890991,438.384399 167.693954,439.637085 
	C166.493668,440.107391 165.816605,441.913025 164.900970,443.109833 
	C166.678558,443.555023 169.170792,444.977722 170.117081,444.285828 
	C175.990997,439.991425 181.295898,440.698517 187.097183,446.015106 
	C188.291763,442.651123 189.240768,439.978729 190.354584,436.842163 
	C193.675232,443.277405 193.675232,443.277405 197.530350,438.992462 
	C202.964737,441.477417 208.432266,443.977478 214.249298,446.637390 
	C213.021988,449.034454 211.794769,451.431366 210.372086,454.209991 
	C212.457733,454.534637 215.559952,455.802521 216.272614,454.985657 
	C218.702026,452.201050 220.876602,453.525665 223.319397,454.284790 
	C229.919693,456.335785 233.645752,454.300415 236.031235,447.636902 
	C236.537308,446.223297 237.667770,445.033234 239.196335,442.687988 
	C241.782898,449.283203 251.493439,443.839630 252.090775,452.127441 
	C253.463333,452.300018 254.760666,452.463104 256.057983,452.626190 
	C256.349213,453.131653 256.640411,453.637115 256.931641,454.142578 
	C253.846802,457.646545 250.761948,461.150482 247.031387,465.387878 
	C247.357681,465.915344 248.290405,468.855713 249.374207,468.912506 
	C252.940216,469.099365 256.560974,468.241180 261.028076,467.674408 
	C258.601929,463.437866 259.342377,461.367371 263.390656,460.995453 
	C264.257721,460.915771 265.035065,460.002563 265.880676,459.520538 
	C268.720245,457.901703 271.984985,456.753235 274.327454,454.598877 
	C278.383698,450.868439 281.016876,454.840393 284.095947,456.058380 
	C286.315155,450.404724 294.196289,448.938202 298.257263,452.921021 
	C300.004608,454.634827 302.238434,455.852570 305.094299,457.900085 
	C305.094299,454.696777 305.094299,452.943512 305.094299,451.553101 
	C307.168793,450.624237 309.357239,448.778351 310.482422,449.286591 
	C316.135315,451.839752 316.120087,448.134430 316.453461,444.233185 
	C320.056335,443.340820 323.742584,442.427826 326.722168,441.689850 
	C326.135101,439.777313 324.938354,437.532288 325.408417,437.100067 
	C326.821289,435.800934 328.955627,434.356995 330.679565,434.502014 
	C335.611420,434.916901 338.506409,439.144745 338.498230,444.291107 
	C338.495789,445.830353 339.451141,447.371124 340.076904,449.236816 
	C343.520355,446.121460 345.911133,436.656128 343.871307,433.903931 
	C340.666656,429.580048 343.251556,428.308960 346.923828,426.735840 
	C348.278809,430.141327 349.965424,432.930786 354.957947,430.532471 
	C349.962952,425.436920 356.766693,425.801544 358.274963,423.913513 
	C364.892975,415.629211 370.656158,414.580444 378.084045,419.864166 
	C378.497559,422.418793 374.414124,425.676788 379.149231,427.624695 
	C383.627136,424.630585 378.626129,421.908142 379.761078,418.796692 
	C382.186707,417.795837 384.040314,414.360229 387.498505,417.518005 
	C388.096100,418.063660 391.565552,416.332123 392.901062,414.899689 
	C393.806824,413.928223 393.490753,411.628815 393.382904,409.944977 
	C393.218445,407.376862 391.546112,405.032349 393.763336,402.258118 
	C395.364258,400.254974 395.992157,397.346588 392.682861,395.494995 
	C388.905914,393.381744 389.992462,391.273621 393.236145,390.149536 
	C395.724335,389.287292 399.174561,388.193085 401.055756,389.244293 
	C404.457214,391.145081 406.860260,388.377136 408.732697,388.564972 
	C415.295410,389.223267 411.486816,383.798828 413.742523,382.091888 
	C417.286102,381.436096 421.088013,380.732452 424.588593,380.084595 
	C422.975586,378.034851 421.256927,375.850830 419.538269,373.666809 
	C419.445709,373.861298 419.353149,374.055786 419.260590,374.250275 
	C417.264221,372.766296 415.267822,371.282318 413.144714,369.704163 
	C414.845947,367.703369 416.643524,366.556763 416.830353,365.189972 
	C417.413696,360.922180 420.371765,359.368774 423.785309,358.829315 
	C427.704834,358.209991 431.809570,358.523407 433.995789,354.240021 
	C434.554749,354.654816 435.113708,355.069611 435.897675,355.651398 
	C436.098969,351.078674 436.287872,346.788116 436.510223,341.737549 
	C437.656616,342.168335 439.640991,343.248047 441.746552,343.597626 
	C443.376038,343.868195 445.265259,343.492554 446.821167,342.864532 
	C447.504211,342.588837 448.272095,340.562683 447.926147,340.031036 
	C446.250519,337.456177 444.225983,335.105865 442.288879,332.705200 
	C441.684723,331.956421 440.276215,330.869812 440.404266,330.663727 
	C442.647858,327.052551 439.157715,327.859131 437.757202,326.869690 
	C436.549500,326.016541 434.770050,323.712860 434.947052,323.505646 
	C436.937622,321.175140 439.180450,319.036163 441.514343,317.030609 
	C443.309448,315.488037 445.330536,314.208435 447.251160,312.811890 
	C447.152557,312.713074 447.053986,312.614258 446.955383,312.515442 
	C449.620270,310.971558 452.285126,309.427673 454.794861,307.973663 
	C453.423950,305.062439 451.594116,302.723480 451.314819,300.212067 
	C450.920746,296.668121 451.743103,292.999084 451.870667,289.377350 
	C451.892670,288.752625 451.173889,287.714447 450.582092,287.518982 
	C447.016907,286.341644 446.616638,283.427368 447.140961,280.575592 
	C447.826385,276.847839 449.085999,273.211609 450.286407,269.598358 
	C450.925720,267.673859 451.477081,265.243530 452.912567,264.154297 
	C456.459198,261.463074 460.616730,259.588776 464.262146,257.009430 
	C465.506866,256.128723 465.957092,254.125183 466.770325,252.634689 
	C465.319122,252.103607 463.785553,250.967300 462.431732,251.151566 
	C457.826263,251.778473 456.111053,249.345764 454.719635,245.503891 
	C453.446503,241.988586 451.356842,238.768997 449.511749,235.195938 
	C449.487915,235.214432 451.091583,234.368240 450.987823,233.988464 
	C449.866180,229.882263 452.550842,227.254364 454.289703,224.174561 
	C454.788879,223.290482 454.161011,221.770050 454.049896,220.541397 
	C449.263184,221.878448 450.526489,217.947342 449.359009,215.682831 
	C448.375641,213.775482 445.785706,212.696396 443.525848,210.957397 
	C446.548950,208.237442 448.556885,206.430832 450.553070,204.634827 
	C446.940887,200.829224 439.165863,201.860703 440.675629,192.904999 
	C441.986542,185.128662 447.291687,185.546616 453.581604,184.830750 
	C446.886536,179.695129 444.549988,174.286636 446.512604,167.217667 
	C446.863678,165.953049 445.420105,162.919830 445.191833,162.958939 
	C442.571991,163.408020 437.795685,164.350952 437.813782,165.053574 
	C437.963287,170.853027 432.289001,171.310486 429.672638,174.366302 
	C429.034180,175.111954 425.276001,173.715271 423.381714,172.584244 
	C422.671539,172.160172 423.090912,169.684891 423.161224,168.152435 
	C423.254089,166.129272 423.103241,163.963028 423.782715,162.126770 
	C425.103455,158.557495 419.172272,153.416458 426.177094,151.116348 
	C426.511902,151.006409 426.883911,149.837891 426.683258,149.448608 
	C424.453186,145.122223 423.716156,139.881989 418.309265,137.542191 
	C416.507202,136.762344 414.009735,133.649445 414.408875,132.493546 
	C415.429962,129.536636 415.210510,127.086197 412.487549,126.561142 
	C410.541901,126.185974 407.696960,127.609238 406.063690,129.111267 
	C403.188995,131.754944 399.424988,131.847473 397.786774,128.217300 
	C396.909271,126.272789 397.990356,123.357307 396.968475,121.581551 
	C394.042328,116.496544 398.050140,114.857620 400.837769,112.579514 
	C402.155914,111.502342 403.731964,110.740799 405.900177,109.396729 
	C402.618134,106.748962 400.023071,104.655411 397.428009,102.561852 
	C396.914734,102.890076 396.401459,103.218307 395.888214,103.546532 
	C396.295715,106.186546 396.703217,108.826561 397.101654,111.407784 
	C395.750366,112.955063 394.348236,115.942039 392.224213,116.600540 
	C390.138855,117.247040 387.319946,115.527252 384.555695,114.772972 
	C386.846405,112.108261 389.599915,110.318085 389.469177,108.771828 
	C389.169708,105.230980 388.282379,101.854256 390.140869,98.485008 
	C390.254944,98.278145 389.751434,97.730614 389.245850,96.820755 
	C385.299957,99.675423 381.577057,102.368736 377.821747,105.085526 
	C376.065765,98.389030 370.042847,104.393730 366.266205,102.498833 
	C365.135712,96.967484 361.636688,94.472916 356.162048,93.953705 
	C351.573761,93.518562 350.263123,90.614250 352.117554,86.310257 
	C352.986298,84.293945 353.775879,82.380814 351.094391,80.455917 
	C347.387634,77.795029 340.781006,77.308800 336.855316,79.521912 
	C334.894867,80.627129 331.943512,81.365334 329.969635,80.699783 
	C327.567505,79.889847 326.034607,78.003021 326.385529,74.182579 
	C326.688751,70.881615 323.678375,67.228348 321.917938,63.842514 
	C321.680786,63.386364 320.184814,63.472660 319.276978,63.497849 
	C316.330750,63.579601 313.258911,64.344978 310.472351,63.745697 
	C306.338654,62.856693 304.883606,63.964138 305.358673,68.065437 
	C305.434723,68.722107 304.981201,69.440125 304.772491,70.129784 
	C303.911163,69.853539 302.818085,69.807388 302.252441,69.237602 
	C301.664032,68.644890 301.585175,67.546341 301.067902,66.041946 
	C298.871033,67.261978 297.049133,68.284752 295.216919,69.288651 
	C292.629913,70.706100 287.645935,69.516602 287.234406,66.963509 
	C286.582947,62.922131 283.671875,60.981205 281.492188,58.116325 
	C277.542816,52.925411 276.991119,56.328716 275.345062,59.150867 
	C274.251282,58.783543 273.174377,58.379997 272.073090,58.060520 
	C269.561218,57.331860 266.571747,55.504406 264.659515,56.285515 
	C263.002502,56.962376 262.561310,60.615696 261.551178,63.028748 
	C260.365387,62.103706 259.264252,60.530064 258.014618,60.401649 
	C253.998062,59.988876 249.912598,60.285622 245.881363,59.963081 
	C243.189453,59.747704 240.102310,59.618507 237.990067,58.233604 
	C235.316635,56.480774 233.592300,56.197681 231.035370,58.192001 
	C228.474976,60.189034 224.255020,58.740490 224.195511,55.783493 
	C224.130722,52.562855 222.139221,51.683296 220.203018,52.243019 
	C218.573761,52.714001 216.850266,54.786026 216.254593,56.521984 
	C214.817841,60.709057 214.204147,65.174400 212.848862,69.396011 
	C212.426071,70.712929 210.793579,72.317451 209.529861,72.498390 
	C208.265015,72.679504 205.615524,71.314445 205.567398,70.508110 
	C205.315643,66.289589 201.733002,66.370033 199.568634,66.366844 
	C196.132507,66.361763 196.319000,65.308655 196.837692,62.686531 
	C197.132523,61.196087 196.169220,58.057167 195.790558,58.060017 
	C193.314667,58.078644 190.843704,58.753269 188.371140,59.213528 
	C188.143509,59.643036 187.915863,60.072544 187.688232,60.502052 
	C189.151794,61.539433 190.615372,62.576817 192.023148,63.574654 
	C191.096069,65.764580 190.230209,67.809868 189.697174,69.068962 
	C185.517914,70.273499 181.853775,71.329575 178.285675,72.357964 
	C177.871490,71.857567 176.535263,70.079506 176.435242,70.146523 
	C174.402832,71.508247 171.600739,72.739349 170.860413,74.712440 
	C170.179642,76.526718 167.755234,80.416496 172.747253,81.426643 
	C173.266464,81.531700 173.511337,82.992447 173.602478,83.196129 
	C169.292572,83.499222 165.680161,83.822792 162.060532,83.992065 
	C156.139496,84.268959 158.489059,89.452858 157.023422,92.366432 
	C156.887177,92.637253 157.031906,93.040833 156.918137,93.332886 
	C155.900131,95.945953 150.998291,97.085205 149.391586,95.089706 
	C147.848495,93.173233 146.323318,91.242355 144.786118,89.312592 
	C139.465652,92.747528 139.002258,97.652153 138.007233,102.243973 
	C137.600433,104.121262 141.634262,105.880386 138.066772,108.063957 
	C135.997894,109.330254 134.470306,111.470367 132.419250,112.778381 
	C127.796577,115.726372 122.999817,118.401367 118.203987,121.228661 
	C116.919884,118.122025 115.345818,114.313858 113.771744,110.505684 
	C113.380455,110.722542 112.989159,110.939392 112.597870,111.156250 
	C111.964546,112.844864 111.331230,114.533470 110.612984,116.448509 
	C108.731186,115.198036 107.401558,114.314491 105.276955,112.902679 
	C104.650383,115.014679 103.299042,117.147499 103.875664,118.054115 
	C106.121353,121.585037 108.978432,124.727112 111.799217,128.252731 
	C111.148689,128.368881 109.356323,128.688919 106.635132,129.174789 
	C107.033333,131.772675 107.465691,134.593430 108.036850,138.319717 
	C107.676750,138.712677 106.493584,140.106705 105.195419,141.383865 
	C104.345924,142.219604 102.788734,143.715210 102.468208,143.506027 
	C95.847832,139.185364 97.325470,146.961563 94.491562,147.847961 
	C92.416481,147.946304 89.479347,147.579620 88.402473,148.823471 
	C85.476425,152.203201 82.800171,151.837067 79.661674,149.182510 
	C78.940125,152.479935 74.370399,156.065109 81.242569,157.211655 
	C81.483566,157.251862 81.783859,157.661575 81.845268,157.944885 
	C82.809280,162.391586 83.738533,166.845840 84.778694,171.787277 
	C78.509293,171.955658 74.140724,175.789032 71.017296,179.961868 
	C69.173355,177.572617 67.938652,175.972778 66.703949,174.372940 
	C66.085938,175.770950 65.534500,177.203598 64.830460,178.556854 
	C64.177635,179.811707 63.361771,180.981735 62.276623,182.742584 
	C64.497749,183.352173 66.140358,183.802994 68.641800,184.489517 
	C67.436501,190.837540 66.190826,197.398178 65.196030,202.637482 
	C68.303696,205.081818 70.785736,207.034058 74.175392,209.700180 
	C63.807228,213.250793 62.247345,220.283371 64.939987,228.382629 
	C63.615597,228.382629 61.784901,228.267090 61.766609,228.400330 
	C61.562290,229.888733 61.637650,231.415527 61.637650,233.487778 
	C58.129623,234.508743 55.755451,237.271759 57.915554,241.681458 
	C59.536423,244.990372 60.822105,247.769058 56.964844,250.027863 
	C60.072823,251.158249 62.858185,252.171295 65.394142,253.093628 
	C64.633423,256.240143 64.075386,258.548279 63.517349,260.856415 
	C63.309017,260.595123 63.100681,260.333862 62.892345,260.072571 
	C59.618286,262.709900 56.344231,265.347229 53.390846,267.726257 
	C56.387245,269.415253 58.683388,270.709534 60.979530,272.003815 
	C60.283672,273.128479 59.587814,274.253143 59.052517,275.118317 
	C59.630650,277.430054 60.169918,279.586365 60.464283,280.763397 
	C63.431652,282.351990 66.440994,283.176636 68.228676,285.123199 
	C70.365044,287.449432 72.825386,290.766937 72.760124,293.600159 
	C72.496567,305.041229 63.413456,306.262726 54.233570,307.235718 
	C54.850933,308.790161 55.821526,310.051331 55.512276,310.638580 
	C52.470222,316.415497 57.907391,317.440002 60.464821,317.335999 
	C66.304298,317.098419 65.399765,320.985504 65.957329,324.182983 
	C66.217247,325.673553 66.170334,327.217651 66.186356,327.481873 
	C70.772682,327.799988 74.357796,328.048676 79.197884,328.384399 
	C76.486191,326.271973 75.078003,325.174988 73.382149,323.853912 
	C77.555138,321.685211 83.863525,323.591431 82.916077,325.844086 
	C80.541946,331.488708 86.750671,337.903564 80.964355,343.033966 
	C80.439110,343.499634 81.044342,345.240356 80.455154,345.881042 
	C76.923409,344.885193 71.618843,347.156677 70.013763,350.908997 
	C72.515648,351.641479 74.921196,352.786743 77.384438,352.928314 
	C79.379059,353.043030 81.443100,351.950317 83.476364,351.393158 
	C82.646027,349.677979 81.815689,347.962769 81.835884,346.014099 
M234.313873,44.991394 
	C233.035202,50.063034 238.294006,49.440102 240.312836,51.625122 
	C240.592545,51.927856 243.457565,50.734425 243.452118,50.252522 
	C243.429443,48.243084 242.767197,46.240860 242.288223,43.995670 
	C241.216782,44.828503 240.557068,45.341293 239.276123,46.336975 
	C239.402557,44.199905 239.484299,42.818394 239.566040,41.436878 
	C239.204575,41.128822 238.843124,40.820770 238.481659,40.512714 
	C237.178223,41.759861 235.874771,43.007008 234.313873,44.991394 
M145.820023,423.994385 
	C142.973892,424.597229 140.127777,425.200043 136.782440,425.908600 
	C140.379028,429.999359 143.913879,431.096466 147.227798,429.200928 
	C148.397980,428.531586 148.901443,426.696655 149.709305,425.393860 
	C148.676407,424.914886 147.643509,424.435913 145.820023,423.994385 
M234.986542,27.271318 
	C227.787003,24.207664 227.787003,24.207664 225.285156,29.637497 
	C234.819641,35.781689 235.476456,33.568272 234.986542,27.271318 
M409.430695,432.961914 
	C410.784668,432.716248 412.138641,432.470551 413.587860,432.207550 
	C412.490417,430.272308 411.673431,428.693909 410.728424,427.196259 
	C409.161896,424.713623 403.807404,426.023285 404.374359,428.764587 
	C404.717377,430.422913 407.150513,431.648926 409.430695,432.961914 
M369.963715,58.559555 
	C370.424438,59.019886 370.814880,59.602474 371.360077,59.915821 
	C372.602142,60.629662 373.920074,61.211460 375.207184,61.846909 
	C375.589294,60.664310 376.644104,58.995762 376.213745,58.400063 
	C375.311737,57.151428 373.728088,55.977028 372.240540,55.673878 
	C370.319489,55.282387 369.150299,56.664574 369.963715,58.559555 
M180.042892,452.997894 
	C184.038757,456.631897 184.695831,451.947632 188.226761,449.843140 
	C184.987885,448.739349 183.037643,448.074707 181.087372,447.410095 
	C180.507126,449.176483 179.926865,450.942902 180.042892,452.997894 
M472.687103,172.187653 
	C471.999512,170.777420 471.311890,169.367172 470.624298,167.956940 
	C468.943970,169.447876 467.263611,170.938812 465.080994,172.875412 
	C468.639954,174.830780 470.756042,176.087662 472.687103,172.187653 
M179.869385,463.617889 
	C178.532806,462.798035 177.220551,461.431915 175.850143,461.370819 
	C175.074188,461.336243 173.992569,463.358978 173.480453,464.629242 
	C173.282928,465.119202 174.543533,466.792938 174.694534,466.736511 
	C176.442795,466.082855 178.105652,465.200775 179.869385,463.617889 
M361.583435,439.729950 
	C359.115509,438.275055 356.647614,436.820160 354.099426,435.317963 
	C353.400848,440.951904 354.513824,441.690155 361.583435,439.729950 
z"/>
<path fill="#F8F8F8" opacity="1.000000" stroke="none" 
	d="
M99.293137,77.027733 
	C98.564522,79.427727 94.808754,81.177460 97.768211,84.491142 
	C98.012062,84.764175 96.457947,86.642982 95.520592,88.120262 
	C93.015503,85.228416 90.552986,82.570168 88.424042,79.667282 
	C88.188934,79.346695 90.233582,77.736183 90.584808,76.537529 
	C92.116943,71.308701 95.120918,72.829613 98.620049,75.181030 
	C99.072380,76.152809 99.182762,76.590271 99.293137,77.027733 
z"/>
<path fill="#FBFBFB" opacity="1.000000" stroke="none" 
	d="
M358.580811,478.186920 
	C354.846344,474.120605 355.102997,472.589386 358.780579,469.716339 
	C360.614716,468.283478 361.871307,466.111359 363.516388,464.119568 
	C368.902679,467.987122 360.550812,473.252808 365.784546,477.509583 
	C362.848755,477.869324 360.893921,478.108856 358.580811,478.186920 
z"/>
<path fill="#F7F7F7" opacity="1.000000" stroke="none" 
	d="
M120.078598,447.960632 
	C121.138504,449.138245 122.117050,449.948700 123.330162,450.953430 
	C122.333878,452.146271 121.525909,453.113647 120.685677,454.119629 
	C120.058029,453.690704 119.542435,453.501709 119.284767,453.132660 
	C118.389275,451.849884 117.891914,449.892151 116.690895,449.286804 
	C110.761108,446.298004 110.702393,446.424072 113.773033,440.585205 
	C114.000648,440.152374 114.118004,439.661621 114.484970,438.652100 
	C116.454185,441.846313 118.225716,444.719910 120.078598,447.960632 
z"/>
<path fill="#F8F8F8" opacity="1.000000" stroke="none" 
	d="
M487.916656,215.885223 
	C488.571198,214.388367 489.165588,213.276154 489.760010,212.163925 
	C490.842590,213.237167 492.605835,214.173935 492.854523,215.414352 
	C493.267670,217.475189 492.708160,219.731033 491.958527,221.987122 
	C489.921417,220.292419 484.986298,220.928894 487.916656,215.885223 
z"/>
<path fill="#F7F7F7" opacity="1.000000" stroke="none" 
	d="
M435.872681,417.352844 
	C437.138092,414.385864 438.346069,411.833954 439.554016,409.282074 
	C440.039978,409.352081 440.525909,409.422119 441.011871,409.492157 
	C441.011871,412.317993 441.282959,415.183289 440.880463,417.950592 
	C440.716064,419.081085 439.093170,419.999420 438.133789,421.014282 
	C437.360901,419.932129 436.588074,418.850037 435.872681,417.352844 
z"/>
<path fill="#FCFCFC" opacity="1.000000" stroke="none" 
	d="
M306.124146,21.095257 
	C306.736328,20.431152 307.553619,19.947878 308.370911,19.464607 
	C307.986908,20.050022 307.602905,20.635435 306.992523,21.412937 
	C306.620514,21.495382 306.474884,21.385733 306.124146,21.095257 
z"/>
<path fill="#FCFCFC" opacity="1.000000" stroke="none" 
	d="
M52.437881,391.419983 
	C51.758247,390.997192 51.301666,390.417450 50.845078,389.837677 
	C51.505016,389.986237 52.164955,390.134796 52.951462,390.597382 
	C52.938995,391.028625 52.799965,391.145813 52.437881,391.419983 
z"/>
<path fill="#FEFEFE" opacity="1.000000" stroke="none" 
	d="
M73.901978,189.817520 
	C72.679665,188.181000 71.781677,186.779449 70.883690,185.377884 
	C72.271988,184.569901 73.671257,183.116806 75.045410,183.140167 
	C76.350166,183.162338 78.431114,184.510513 78.746239,185.664581 
	C79.342674,187.848892 78.918701,190.311813 78.918701,192.658981 
	C78.431198,192.803192 77.943687,192.947418 77.456184,193.091629 
	C76.379555,192.078583 75.302933,191.065521 73.901978,189.817520 
z"/>
</svg>